<?xml version="1.0" encoding="UTF-8"?>
<svg xmlns="http://www.w3.org/2000/svg" xmlns:xlink="http://www.w3.org/1999/xlink" width="200pt" height="200pt" viewBox="0 0 200 200" version="1.1">
<g id="surface1">
<path style=" stroke:none;fill-rule:nonzero;fill:rgb(0%,0%,0%);fill-opacity:1;" d="M 0 100 C 0 72.394531 9.765625 48.828125 29.296875 29.296875 C 48.828125 9.765625 72.394531 0 100 0 C 127.605469 0 151.171875 9.765625 170.703125 29.296875 C 190.234375 48.828125 200 72.394531 200 100 C 200 127.605469 190.234375 151.171875 170.703125 170.703125 C 151.171875 190.234375 127.605469 200 100 200 C 72.394531 200 48.828125 190.234375 29.296875 170.703125 C 9.765625 151.171875 0 127.605469 0 100 Z M 10.9375 100 C 10.9375 124.480469 19.660156 145.441406 37.109375 162.890625 C 54.558594 180.339844 75.519531 189.0625 100 189.0625 C 124.480469 189.0625 145.441406 180.339844 162.890625 162.890625 C 180.339844 145.441406 189.0625 124.480469 189.0625 100 C 189.0625 75.519531 180.339844 54.558594 162.890625 37.109375 C 145.441406 19.660156 124.480469 10.9375 100 10.9375 C 75.519531 10.9375 54.558594 19.660156 37.109375 37.109375 C 19.660156 54.558594 10.9375 75.519531 10.9375 100 Z M 39.0625 121.484375 C 38.542969 120.964844 38.542969 120.441406 39.0625 119.921875 C 40.105469 118.878906 41.40625 118.488281 42.96875 118.75 C 44.53125 119.011719 45.441406 119.269531 45.703125 119.53125 C 47.527344 120.3125 49.542969 122.070312 51.757812 124.804688 C 53.972656 127.539062 55.730469 129.425781 57.03125 130.46875 C 63.28125 135.675781 69.660156 136.066406 76.171875 131.640625 C 76.691406 129.816406 77.539062 128.253906 78.710938 126.953125 C 79.882812 125.652344 80.988281 124.738281 82.03125 124.21875 C 83.074219 123.699219 84.894531 122.917969 87.5 121.875 C 78.90625 121.09375 71.941406 119.597656 66.601562 117.382812 C 61.261719 115.167969 57.03125 112.371094 53.90625 108.984375 C 49.738281 104.296875 47.199219 98.175781 46.289062 90.625 C 45.378906 83.074219 45.964844 76.171875 48.046875 69.921875 C 49.609375 66.015625 51.824219 62.5 54.6875 59.375 C 52.605469 52.863281 52.996094 45.441406 55.859375 37.109375 C 64.191406 37.628906 71.746094 40.496094 78.515625 45.703125 C 91.535156 42.316406 105.078125 42.1875 119.140625 45.3125 C 120.960938 44.011719 123.761719 42.382812 127.539062 40.429688 C 131.3125 38.476562 136.066406 37.371094 141.796875 37.109375 C 142.835938 39.972656 143.554688 43.359375 143.945312 47.265625 C 144.335938 51.171875 144.140625 54.816406 143.359375 58.203125 C 149.347656 64.453125 152.472656 72.785156 152.734375 83.203125 C 152.734375 91.535156 151.300781 98.4375 148.4375 103.90625 C 145.574219 109.375 140.496094 113.933594 133.203125 117.578125 C 128.253906 119.921875 121.746094 121.351562 113.671875 121.875 C 117.316406 123.695312 119.988281 125.585938 121.679688 127.539062 C 123.371094 129.492188 124.480469 132.550781 125 136.71875 L 125 149.023438 L 125.390625 160.9375 C 126.171875 162.238281 127.082031 163.347656 128.125 164.257812 C 129.167969 165.167969 130.078125 165.820312 130.859375 166.210938 C 131.640625 166.601562 131.902344 167.1875 131.640625 167.96875 C 131.378906 168.75 130.339844 169.140625 128.515625 169.140625 C 124.089844 169.140625 120.574219 167.578125 117.96875 164.453125 C 117.1875 163.152344 116.796875 161.589844 116.796875 159.765625 L 116.796875 141.015625 C 116.796875 138.933594 116.277344 137.433594 115.234375 136.523438 C 114.191406 135.613281 113.152344 135.027344 112.109375 134.765625 L 112.109375 159.375 C 112.109375 163.800781 112.628906 166.667969 113.671875 167.96875 C 114.714844 169.269531 115.363281 170.574219 115.625 171.875 C 115.886719 172.136719 115.691406 172.328125 115.039062 172.460938 C 114.386719 172.589844 113.28125 172.394531 111.71875 171.875 C 108.332031 171.09375 105.988281 169.335938 104.6875 166.601562 C 103.386719 163.867188 102.734375 160.9375 102.734375 157.8125 L 102.734375 133.59375 L 97.65625 133.59375 L 97.65625 157.8125 C 97.65625 160.9375 97.003906 163.933594 95.703125 166.796875 C 93.878906 170.441406 90.496094 172.394531 85.546875 172.65625 C 84.765625 172.394531 84.375 172.136719 84.375 171.875 C 84.636719 171.613281 85.417969 170.3125 86.71875 167.96875 C 86.980469 167.449219 87.304688 166.40625 87.695312 164.84375 C 88.085938 163.28125 88.28125 161.457031 88.28125 159.375 L 88.28125 134.765625 C 87.238281 135.027344 86.261719 135.613281 85.351562 136.523438 C 84.441406 137.433594 83.984375 138.933594 83.984375 141.015625 L 83.984375 159.765625 C 83.984375 161.589844 83.59375 163.152344 82.8125 164.453125 C 80.46875 167.578125 76.953125 169.140625 72.265625 169.140625 C 70.441406 169.140625 69.402344 168.75 69.140625 167.96875 C 68.878906 167.449219 68.945312 166.992188 69.335938 166.601562 C 69.726562 166.210938 70.3125 165.753906 71.09375 165.234375 C 71.875 164.714844 72.394531 164.324219 72.65625 164.0625 C 73.699219 163.28125 74.480469 162.238281 75 160.9375 C 75.78125 159.894531 75.976562 157.160156 75.585938 152.734375 C 75.195312 148.308594 75.128906 145.441406 75.390625 144.140625 C 68.621094 146.484375 61.71875 145.3125 54.6875 140.625 C 52.605469 138.542969 50.519531 135.546875 48.4375 131.640625 C 46.875 128.777344 43.75 125.390625 39.0625 121.484375 Z M 39.0625 121.484375 "/>
</g>
</svg>
